<svg width="31" height="31" viewBox="0 0 31 31" fill="none" xmlns="http://www.w3.org/2000/svg">
<path fill-rule="evenodd" clip-rule="evenodd" d="M21.9984 27.8111C21.9084 27.9013 21.8015 27.9729 21.6838 28.0217C21.5661 28.0706 21.4399 28.0957 21.3125 28.0957C21.1851 28.0957 21.0589 28.0706 20.9412 28.0217C20.8235 27.9729 20.7166 27.9013 20.6266 27.8111L9.0016 16.1861C8.91138 16.0961 8.83981 15.9892 8.79097 15.8715C8.74213 15.7538 8.71699 15.6276 8.71699 15.5002C8.71699 15.3728 8.74213 15.2466 8.79097 15.1289C8.83981 15.0112 8.91138 14.9043 9.0016 14.8143L20.6266 3.18935C20.8085 3.00744 21.0552 2.90525 21.3125 2.90525C21.5697 2.90525 21.8164 3.00744 21.9984 3.18935C22.1803 3.37125 22.2824 3.61797 22.2824 3.87522C22.2824 4.13248 22.1803 4.37919 21.9984 4.5611L11.0573 15.5002L21.9984 26.4393C22.0886 26.5293 22.1601 26.6362 22.209 26.7539C22.2578 26.8716 22.283 26.9978 22.283 27.1252C22.283 27.2526 22.2578 27.3788 22.209 27.4965C22.1601 27.6142 22.0886 27.7211 21.9984 27.8111Z" fill="#494949"/>
</svg>
