<svg width="80" height="80" viewBox="0 0 80 80" fill="none" xmlns="http://www.w3.org/2000/svg">
<path d="M5 10.1401C9.425 8.29014 15.77 6.29514 21.94 5.67514C28.59 5.00514 34.23 5.99014 37.5 9.43514V58.1651C32.825 55.5151 26.9 55.1501 21.435 55.7001C15.535 56.3001 9.585 58.0051 5 59.7551V10.1401ZM42.5 9.43514C45.77 5.99014 51.41 5.00514 58.06 5.67514C64.23 6.29514 70.575 8.29014 75 10.1401V59.7551C70.41 58.0051 64.465 56.2951 58.565 55.7051C53.095 55.1501 47.175 55.5101 42.5 58.1651V9.43514ZM40 4.91514C35.075 0.680136 27.935 0.0501364 21.435 0.700136C13.865 1.46514 6.225 4.06014 1.465 6.22514C1.02825 6.42378 0.657877 6.7439 0.398105 7.1473C0.138333 7.5507 0.000132857 8.02033 0 8.50014L0 63.5001C0.00011581 63.9184 0.105186 64.33 0.305586 64.6972C0.505985 65.0643 0.795309 65.3754 1.14705 65.6017C1.4988 65.8281 1.90172 65.9626 2.31892 65.9929C2.73611 66.0232 3.15424 65.9483 3.535 65.7751C7.945 63.7751 15.05 61.3701 21.935 60.6751C28.98 59.9651 34.885 61.1101 38.05 65.0601C38.2843 65.3521 38.5811 65.5878 38.9186 65.7497C39.2561 65.9116 39.6257 65.9957 40 65.9957C40.3743 65.9957 40.7439 65.9116 41.0814 65.7497C41.4189 65.5878 41.7157 65.3521 41.95 65.0601C45.115 61.1101 51.02 59.9651 58.06 60.6751C64.95 61.3701 72.06 63.7751 76.465 65.7751C76.8458 65.9483 77.2639 66.0232 77.6811 65.9929C78.0983 65.9626 78.5012 65.8281 78.8529 65.6017C79.2047 65.3754 79.494 65.0643 79.6944 64.6972C79.8948 64.33 79.9999 63.9184 80 63.5001V8.50014C79.9999 8.02033 79.8617 7.5507 79.6019 7.1473C79.3421 6.7439 78.9718 6.42378 78.535 6.22514C73.775 4.06014 66.135 1.46514 58.565 0.700136C52.065 0.0451364 44.925 0.680136 40 4.91514Z" fill="white"/>
</svg>
