<svg width="80" height="80" viewBox="0 0 80 80" fill="none" xmlns="http://www.w3.org/2000/svg">
<g clip-path="url(#clip0)">
<path d="M5 14.1401C9.425 12.2901 15.77 10.2951 21.94 9.67514C28.59 9.00514 34.23 9.99014 37.5 13.4351V62.1651C32.825 59.5151 26.9 59.1501 21.435 59.7001C15.535 60.3001 9.585 62.0051 5 63.7551V14.1401ZM42.5 13.4351C45.77 9.99014 51.41 9.00514 58.06 9.67514C64.23 10.2951 70.575 12.2901 75 14.1401V63.7551C70.41 62.0051 64.465 60.2951 58.565 59.7051C53.095 59.1501 47.175 59.5101 42.5 62.1651V13.4351ZM40 8.91514C35.075 4.68014 27.935 4.05014 21.435 4.70014C13.865 5.46514 6.225 8.06014 1.465 10.2251C1.02825 10.4238 0.657877 10.7439 0.398105 11.1473C0.138333 11.5507 0.000132857 12.0203 0 12.5001L0 67.5001C0.00011581 67.9184 0.105186 68.33 0.305586 68.6972C0.505985 69.0643 0.795309 69.3754 1.14705 69.6017C1.4988 69.8281 1.90172 69.9626 2.31892 69.9929C2.73611 70.0232 3.15424 69.9483 3.535 69.7751C7.945 67.7751 15.05 65.3701 21.935 64.6751C28.98 63.9651 34.885 65.1101 38.05 69.0601C38.2843 69.3521 38.5811 69.5878 38.9186 69.7497C39.2561 69.9116 39.6257 69.9957 40 69.9957C40.3743 69.9957 40.7439 69.9116 41.0814 69.7497C41.4189 69.5878 41.7157 69.3521 41.95 69.0601C45.115 65.1101 51.02 63.9651 58.06 64.6751C64.95 65.3701 72.06 67.7751 76.465 69.7751C76.8458 69.9483 77.2639 70.0232 77.6811 69.9929C78.0983 69.9626 78.5012 69.8281 78.8529 69.6017C79.2047 69.3754 79.494 69.0643 79.6944 68.6972C79.8948 68.33 79.9999 67.9184 80 67.5001V12.5001C79.9999 12.0203 79.8617 11.5507 79.6019 11.1473C79.3421 10.7439 78.9718 10.4238 78.535 10.2251C73.775 8.06014 66.135 5.46514 58.565 4.70014C52.065 4.04514 44.925 4.68014 40 8.91514Z" fill="#494949"/>
</g>
<defs>
<clipPath id="clip0">
<rect width="80" height="80" fill="white"/>
</clipPath>
</defs>
</svg>
