<svg width="85" height="85" viewBox="0 0 72 72" fill="none" xmlns="http://www.w3.org/2000/svg">
<path d="M64.125 21.2555L55.125 26.4375V15.75C55.125 13.268 53.107 11.25 50.625 11.25H9C6.51797 11.25 4.5 13.268 4.5 15.75V56.25C4.5 58.732 6.51797 60.75 9 60.75H50.625C53.107 60.75 55.125 58.732 55.125 56.25V45.5625L64.125 50.7445C65.6227 51.6094 67.5 50.5266 67.5 48.8039V23.2031C67.5 21.4734 65.6227 20.3906 64.125 21.2555ZM50.0625 55.6875H9.5625V16.3125H50.0625V55.6875ZM62.4375 43.9453L55.125 39.7406V32.2664L62.4375 28.0547V43.9453ZM14.625 25.3125H22.5C22.8094 25.3125 23.0625 25.0594 23.0625 24.75V21.375C23.0625 21.0656 22.8094 20.8125 22.5 20.8125H14.625C14.3156 20.8125 14.0625 21.0656 14.0625 21.375V24.75C14.0625 25.0594 14.3156 25.3125 14.625 25.3125Z" fill="white"/>
</svg>
