<svg width="36" height="36" viewBox="0 0 36 36" fill="none" xmlns="http://www.w3.org/2000/svg">
<path fill-rule="evenodd" clip-rule="evenodd" d="M0 11.25C0 10.0565 0.474106 8.91193 1.31802 8.06802C2.16193 7.22411 3.30653 6.75 4.5 6.75H21.375C22.4665 6.74987 23.5208 7.14643 24.3416 7.86584C25.1624 8.58524 25.6938 9.57845 25.8368 10.6605L32.8343 7.551C33.1768 7.39839 33.552 7.33379 33.9258 7.36309C34.2996 7.39239 34.6602 7.51465 34.9748 7.71877C35.2893 7.92288 35.5479 8.20237 35.7269 8.53183C35.906 8.86129 35.9998 9.23028 36 9.60525V26.3948C35.9997 26.7694 35.9058 27.1381 35.7269 27.4673C35.5479 27.7965 35.2896 28.0758 34.9754 28.2798C34.6611 28.4839 34.3009 28.6062 33.9274 28.6358C33.5539 28.6653 33.1789 28.6011 32.8365 28.449L25.8368 25.3395C25.6938 26.4216 25.1624 27.4148 24.3416 28.1342C23.5208 28.8536 22.4665 29.2501 21.375 29.25H4.5C3.30653 29.25 2.16193 28.7759 1.31802 27.932C0.474106 27.0881 0 25.9435 0 24.75V11.25Z" fill="#E73089"/>
</svg>
