<svg width="36" height="37" viewBox="0 0 36 37" fill="none" xmlns="http://www.w3.org/2000/svg">
<g clip-path="url(#clip0)">
<path d="M27 0.738281H9C7.80653 0.738281 6.66193 1.21239 5.81802 2.0563C4.97411 2.90021 4.5 4.04481 4.5 5.23828V32.2383C4.5 33.4318 4.97411 34.5763 5.81802 35.4203C6.66193 36.2642 7.80653 36.7383 9 36.7383H27C28.1935 36.7383 29.3381 36.2642 30.182 35.4203C31.0259 34.5763 31.5 33.4318 31.5 32.2383V5.23828C31.5 4.04481 31.0259 2.90021 30.182 2.0563C29.3381 1.21239 28.1935 0.738281 27 0.738281V0.738281ZM11.25 9.73828H24.75C25.0484 9.73828 25.3345 9.85681 25.5455 10.0678C25.7565 10.2788 25.875 10.5649 25.875 10.8633C25.875 11.1616 25.7565 11.4478 25.5455 11.6588C25.3345 11.8698 25.0484 11.9883 24.75 11.9883H11.25C10.9516 11.9883 10.6655 11.8698 10.4545 11.6588C10.2435 11.4478 10.125 11.1616 10.125 10.8633C10.125 10.5649 10.2435 10.2788 10.4545 10.0678C10.6655 9.85681 10.9516 9.73828 11.25 9.73828ZM10.125 15.3633C10.125 15.0649 10.2435 14.7788 10.4545 14.5678C10.6655 14.3568 10.9516 14.2383 11.25 14.2383H24.75C25.0484 14.2383 25.3345 14.3568 25.5455 14.5678C25.7565 14.7788 25.875 15.0649 25.875 15.3633C25.875 15.6616 25.7565 15.9478 25.5455 16.1588C25.3345 16.3698 25.0484 16.4883 24.75 16.4883H11.25C10.9516 16.4883 10.6655 16.3698 10.4545 16.1588C10.2435 15.9478 10.125 15.6616 10.125 15.3633ZM11.25 18.7383H24.75C25.0484 18.7383 25.3345 18.8568 25.5455 19.0678C25.7565 19.2788 25.875 19.5649 25.875 19.8633C25.875 20.1616 25.7565 20.4478 25.5455 20.6588C25.3345 20.8698 25.0484 20.9883 24.75 20.9883H11.25C10.9516 20.9883 10.6655 20.8698 10.4545 20.6588C10.2435 20.4478 10.125 20.1616 10.125 19.8633C10.125 19.5649 10.2435 19.2788 10.4545 19.0678C10.6655 18.8568 10.9516 18.7383 11.25 18.7383ZM11.25 23.2383H18C18.2984 23.2383 18.5845 23.3568 18.7955 23.5678C19.0065 23.7788 19.125 24.0649 19.125 24.3633C19.125 24.6616 19.0065 24.9478 18.7955 25.1588C18.5845 25.3698 18.2984 25.4883 18 25.4883H11.25C10.9516 25.4883 10.6655 25.3698 10.4545 25.1588C10.2435 24.9478 10.125 24.6616 10.125 24.3633C10.125 24.0649 10.2435 23.7788 10.4545 23.5678C10.6655 23.3568 10.9516 23.2383 11.25 23.2383Z" fill="#009DCC"/>
</g>
<defs>
<clipPath id="clip0">
<rect width="36" height="36" fill="white" transform="translate(0 0.738281)"/>
</clipPath>
</defs>
</svg>
