<svg width="72" height="72" viewBox="0 0 72 72" fill="none" xmlns="http://www.w3.org/2000/svg">
<path fill-rule="evenodd" clip-rule="evenodd" d="M0 0H4.5V67.5H72V72H0V0ZM45 15.75C45 15.1533 45.2371 14.581 45.659 14.159C46.081 13.7371 46.6533 13.5 47.25 13.5H65.25C65.8467 13.5 66.419 13.7371 66.841 14.159C67.2629 14.581 67.5 15.1533 67.5 15.75V33.75C67.5 34.3467 67.2629 34.919 66.841 35.341C66.419 35.7629 65.8467 36 65.25 36C64.6533 36 64.081 35.7629 63.659 35.341C63.2371 34.919 63 34.3467 63 33.75V22.05L46.7415 41.9265C46.5425 42.1694 46.2948 42.368 46.0144 42.5095C45.734 42.6509 45.4271 42.7321 45.1134 42.7478C44.7997 42.7634 44.4863 42.7133 44.1931 42.6005C43.9 42.4878 43.6338 42.3149 43.4115 42.093L31.77 30.4515L15.318 53.073C14.9581 53.5306 14.4348 53.831 13.8581 53.9108C13.2814 53.9907 12.6962 53.844 12.2255 53.5014C11.7547 53.1588 11.4351 52.6471 11.3337 52.0738C11.2324 51.5005 11.3572 50.9102 11.682 50.427L29.682 25.677C29.8731 25.4138 30.1189 25.1952 30.4026 25.0361C30.6863 24.8771 31.0011 24.7815 31.3253 24.7558C31.6495 24.7301 31.9754 24.7751 32.2806 24.8875C32.5857 24.9999 32.8629 25.1771 33.093 25.407L44.8335 37.152L60.5025 18H47.25C46.6533 18 46.081 17.7629 45.659 17.341C45.2371 16.919 45 16.3467 45 15.75Z" fill="white"/>
</svg>
