<svg width="88" height="105" viewBox="0 0 88 105" fill="none" xmlns="http://www.w3.org/2000/svg">
<path d="M45.8008 47.7658C45.8008 47.2959 46.1817 46.915 46.6515 46.915H51.6345C52.1044 46.915 52.4853 47.2959 52.4853 47.7658V48.2925C52.4853 48.7623 52.1044 49.1432 51.6345 49.1432H46.6515C46.1817 49.1432 45.8008 48.7623 45.8008 48.2925V47.7658Z" fill="white" stroke="white" stroke-width="0.850726"/>
<path d="M45.8008 43.3092C45.8008 42.8394 46.1817 42.4585 46.6515 42.4585H58.319C58.7889 42.4585 59.1697 42.8394 59.1697 43.3092V43.8359C59.1697 44.3058 58.7889 44.6867 58.319 44.6867H46.6515C46.1817 44.6867 45.8008 44.3058 45.8008 43.8359V43.3092Z" fill="white" stroke="white" stroke-width="0.850726"/>
<path d="M45.8008 38.8527C45.8008 38.3828 46.1817 38.002 46.6515 38.002H58.319C58.7889 38.002 59.1697 38.3828 59.1697 38.8527V39.3794C59.1697 39.8492 58.7889 40.2301 58.319 40.2301H46.6515C46.1817 40.2301 45.8008 39.8492 45.8008 39.3794V38.8527Z" fill="white" stroke="white" stroke-width="0.850726"/>
<path d="M40.9202 49.1428C41.1551 49.1428 41.3455 48.9524 41.3455 48.7175V47.34C41.3455 47.1051 41.1551 46.9147 40.9202 46.9147H36.2005C35.9656 46.9147 35.7751 46.7242 35.7751 46.4893V45.1119C35.7751 44.877 35.5847 44.6865 35.3498 44.6865H33.9723C33.7374 44.6865 33.547 44.877 33.547 45.1119V46.4893C33.547 46.7242 33.3565 46.9147 33.1216 46.9147H28.4019C28.167 46.9147 27.9766 47.1051 27.9766 47.34V48.7175C27.9766 48.9524 28.167 49.1428 28.4019 49.1428H36.5866C36.8625 49.1428 37.0656 49.4017 36.9849 49.6655C36.5786 50.994 35.8876 52.2187 34.9598 53.2539C34.7997 53.4326 34.5219 53.4309 34.3634 53.2508C33.9123 52.7385 33.513 52.1826 33.1715 51.5912C33.0936 51.4564 32.951 51.371 32.7953 51.371H31.2136C30.9101 51.371 30.7051 51.6795 30.8364 51.9532C31.3098 52.9399 31.9151 53.858 32.6358 54.6822C32.806 54.8768 32.7774 55.1785 32.5624 55.3221C31.5989 55.9656 30.5695 56.5048 29.4917 56.9305C29.2719 57.0174 29.1583 57.2633 29.2412 57.4847L29.7248 58.7749C29.8067 58.9935 30.0496 59.1057 30.267 59.0208C31.7343 58.4477 33.1215 57.6874 34.3942 56.7588C34.5478 56.6467 34.7566 56.6465 34.9104 56.7583C36.1893 57.6881 37.5829 58.4487 39.0563 59.0215C39.2737 59.106 39.5163 58.9937 39.598 58.7753L40.081 57.4847C40.1639 57.2634 40.0502 57.0174 39.8303 56.9307C38.7547 56.5064 37.7273 55.9692 36.7653 55.328C36.5486 55.1837 36.5212 54.8793 36.694 54.6845C38.0032 53.2087 38.911 51.4198 39.3285 49.4901C39.3719 49.2895 39.547 49.1428 39.7522 49.1428H40.9202Z" fill="white" stroke="white" stroke-width="0.850726"/>
<path d="M38.0802 39.9688C38.1463 40.1273 38.3011 40.2305 38.4728 40.2305H39.9644C40.2679 40.2305 40.4738 39.9217 40.357 39.6415L35.6057 28.2374C35.5396 28.0788 35.3847 27.9756 35.213 27.9756H33.366C33.1942 27.9756 33.0394 28.0788 32.9733 28.2374L28.2219 39.6415C28.1052 39.9217 28.3111 40.2305 28.6146 40.2305H30.1062C30.2778 40.2305 30.4327 40.1273 30.4988 39.9688L31.2097 38.264C31.2758 38.1055 31.4306 38.0023 31.6023 38.0023H36.9767C37.1484 38.0023 37.3032 38.1055 37.3693 38.264L38.0802 39.9688ZM32.8848 35.7741C32.5813 35.7741 32.3755 35.4654 32.4922 35.1852L33.8964 31.8145C34.0418 31.4655 34.5362 31.4654 34.6817 31.8144L36.0866 35.1851C36.2034 35.4653 35.9976 35.7741 35.694 35.7741H32.8848Z" fill="white" stroke="white" stroke-width="0.850726"/>
<mask id="mask0" mask-type="alpha" maskUnits="userSpaceOnUse" x="5" y="1" width="77" height="85">
<path d="M46.4097 3.05879L77.4078 20.8932C79.1228 21.8799 80.1799 23.7077 80.1799 25.6862V61.3139C80.1799 63.2925 79.1228 65.1203 77.4078 66.107L46.4097 83.9414C44.7025 84.9236 42.6017 84.9236 40.8945 83.9414L9.89646 66.107C8.18148 65.1203 7.12436 63.2925 7.12436 61.3139V25.6862C7.12436 23.7077 8.18148 21.8799 9.89645 20.8932L40.8945 3.05879C42.6017 2.07656 44.7025 2.07656 46.4097 3.05879Z" fill="white" stroke="#009DCC" stroke-width="2.55218"/>
</mask>
<g mask="url(#mask0)">
<path d="M40.8945 3.05879C42.6017 2.07656 44.7025 2.07656 46.4097 3.05879L77.4078 20.8932C79.1228 21.8799 80.1799 23.7077 80.1799 25.6862V61.3139C80.1799 63.2925 79.1228 65.1203 77.4078 66.107L46.4097 83.9414C44.7025 84.9236 42.6017 84.9236 40.8945 83.9414L9.89646 66.107C8.18148 65.1203 7.12436 63.2925 7.12436 61.3139V25.6862C7.12436 23.7077 8.18148 21.8799 9.89645 20.8932L40.8945 3.05879Z" stroke="white" stroke-width="2.55218"/>
</g>
</svg>
