<svg width="17" height="17" viewBox="0 0 12 12" fill="none" xmlns="http://www.w3.org/2000/svg">
<path d="M6 0.75C6.39782 0.75 6.77936 0.908035 7.06066 1.18934C7.34196 1.47064 7.5 1.85218 7.5 2.25V5.25H4.5V2.25C4.5 1.85218 4.65804 1.47064 4.93934 1.18934C5.22064 0.908035 5.60218 0.75 6 0.75ZM8.25 5.25V2.25C8.25 1.65326 8.01295 1.08097 7.59099 0.65901C7.16903 0.237053 6.59674 0 6 0C5.40326 0 4.83097 0.237053 4.40901 0.65901C3.98705 1.08097 3.75 1.65326 3.75 2.25V5.25C3.35218 5.25 2.97064 5.40804 2.68934 5.68934C2.40804 5.97064 2.25 6.35218 2.25 6.75V10.5C2.25 10.8978 2.40804 11.2794 2.68934 11.5607C2.97064 11.842 3.35218 12 3.75 12H8.25C8.64782 12 9.02936 11.842 9.31066 11.5607C9.59196 11.2794 9.75 10.8978 9.75 10.5V6.75C9.75 6.35218 9.59196 5.97064 9.31066 5.68934C9.02936 5.40804 8.64782 5.25 8.25 5.25Z" fill="#C4C4C4"/>
</svg>
