<svg width="70" height="13" viewBox="0 0 70 13" fill="none" xmlns="http://www.w3.org/2000/svg">
<path d="M32.528 11.08C31.9947 11.08 31.6053 10.7173 31.36 9.992L28.4 1.32C28.3573 1.20267 28.336 1.06933 28.336 0.919999C28.336 0.674666 28.4213 0.466666 28.592 0.296C28.7627 0.125333 28.9813 0.039999 29.248 0.039999C29.696 0.039999 30 0.279999 30.16 0.759999L32.544 8.024H32.592L34.88 0.759999C35.04 0.279999 35.344 0.039999 35.792 0.039999C36.0587 0.039999 36.2773 0.125333 36.448 0.296C36.6187 0.455999 36.704 0.663999 36.704 0.919999C36.704 1.016 36.6827 1.14933 36.64 1.32L33.68 9.992C33.4347 10.7173 33.0507 11.08 32.528 11.08ZM40.5201 11.176C39.7308 11.176 39.0535 10.9893 38.4881 10.616C37.9335 10.2427 37.5495 9.72 37.3361 9.048C37.1655 8.52533 37.0801 7.89067 37.0801 7.144C37.0801 6.39733 37.1655 5.76267 37.3361 5.24C37.5495 4.568 37.9335 4.04533 38.4881 3.672C39.0535 3.29867 39.7308 3.112 40.5201 3.112C41.2988 3.112 41.9655 3.29867 42.5201 3.672C43.0855 4.04533 43.4748 4.568 43.6881 5.24C43.8588 5.76267 43.9441 6.39733 43.9441 7.144C43.9441 7.89067 43.8588 8.52533 43.6881 9.048C43.4748 9.72 43.0855 10.2427 42.5201 10.616C41.9655 10.9893 41.2988 11.176 40.5201 11.176ZM40.5201 9.576C41.2455 9.576 41.7255 9.24 41.9601 8.568C42.0668 8.23733 42.1201 7.76267 42.1201 7.144C42.1201 6.536 42.0668 6.06133 41.9601 5.72C41.7255 5.048 41.2455 4.712 40.5201 4.712C39.7841 4.712 39.2988 5.048 39.0641 5.72C38.9575 6.06133 38.9041 6.536 38.9041 7.144C38.9041 7.76267 38.9575 8.23733 39.0641 8.568C39.2988 9.24 39.7841 9.576 40.5201 9.576ZM48.0791 11.096H47.9511C47.1938 11.096 46.6498 10.9147 46.3191 10.552C45.9991 10.1787 45.8391 9.608 45.8391 8.84V0.983999C45.8391 0.695999 45.9191 0.466666 46.0791 0.296C46.2498 0.125333 46.4685 0.039999 46.7351 0.039999C47.0018 0.039999 47.2151 0.125333 47.3751 0.296C47.5458 0.466666 47.6311 0.695999 47.6311 0.983999V8.696C47.6311 8.96267 47.6791 9.15467 47.7751 9.272C47.8711 9.38933 48.0311 9.464 48.2551 9.496C48.7565 9.56 49.0071 9.82133 49.0071 10.28C49.0071 10.5253 48.9271 10.7227 48.7671 10.872C48.6178 11.0213 48.3885 11.096 48.0791 11.096ZM50.4961 4.68H50.2721C50.0481 4.68 49.8668 4.62133 49.7281 4.504C49.6001 4.376 49.5361 4.20533 49.5361 3.992C49.5361 3.77867 49.6001 3.608 49.7281 3.48C49.8668 3.352 50.0481 3.288 50.2721 3.288H50.4961C50.5708 3.288 50.6081 3.256 50.6081 3.192V1.784C50.6081 1.496 50.6935 1.26667 50.8641 1.096C51.0348 0.925333 51.2535 0.839999 51.5201 0.839999C51.7761 0.839999 51.9841 0.925333 52.1441 1.096C52.3148 1.26667 52.4001 1.496 52.4001 1.784V3.192C52.4001 3.256 52.4321 3.288 52.4961 3.288H53.3121C53.5361 3.288 53.7121 3.352 53.8401 3.48C53.9788 3.608 54.0481 3.77867 54.0481 3.992C54.0481 4.20533 53.9788 4.376 53.8401 4.504C53.7121 4.62133 53.5361 4.68 53.3121 4.68H52.4961C52.4321 4.68 52.4001 4.712 52.4001 4.776V8.616C52.4001 8.92533 52.4535 9.144 52.5601 9.272C52.6775 9.38933 52.9015 9.464 53.2321 9.496C53.4988 9.51733 53.7015 9.60267 53.8401 9.752C53.9788 9.90133 54.0481 10.0827 54.0481 10.296C54.0481 10.5307 53.9628 10.7227 53.7921 10.872C53.6321 11.0213 53.3921 11.096 53.0721 11.096H52.9281C52.0961 11.096 51.4988 10.904 51.1361 10.52C50.7841 10.136 50.6081 9.51733 50.6081 8.664V4.776C50.6081 4.712 50.5708 4.68 50.4961 4.68ZM62.1484 9.72C62.2444 9.89067 62.2924 10.0667 62.2924 10.248C62.2924 10.4827 62.207 10.68 62.0364 10.84C61.8657 11 61.6524 11.08 61.3964 11.08C61.0657 11.08 60.815 10.9573 60.6444 10.712L60.3884 10.328H60.3724C59.8924 10.8933 59.135 11.176 58.1004 11.176C57.1937 11.176 56.5004 10.9733 56.0204 10.568C55.5404 10.1627 55.3004 9.58667 55.3004 8.84C55.3004 8.02933 55.567 7.416 56.1004 7C56.6444 6.584 57.4017 6.376 58.3724 6.376H59.9564C60.0204 6.376 60.0524 6.344 60.0524 6.28V6.088C60.0524 5.13867 59.4764 4.664 58.3244 4.664C57.8337 4.664 57.3644 4.77067 56.9164 4.984C56.7564 5.048 56.6017 5.08 56.4524 5.08C56.239 5.08 56.063 5.016 55.9244 4.888C55.7857 4.74933 55.7164 4.568 55.7164 4.344C55.7164 4.024 55.8657 3.78933 56.1644 3.64C56.7724 3.288 57.5564 3.112 58.5164 3.112C59.5937 3.112 60.399 3.368 60.9324 3.88C61.4764 4.392 61.7484 5.13333 61.7484 6.104V8.536C61.7484 8.84533 61.8017 9.10133 61.9084 9.304L62.1484 9.72ZM58.3564 9.72C58.8897 9.72 59.3057 9.61867 59.6044 9.416C59.903 9.20267 60.0524 8.89867 60.0524 8.504V7.816C60.0524 7.752 60.0204 7.72 59.9564 7.72H58.6764C58.0897 7.72 57.663 7.80533 57.3964 7.976C57.1404 8.14667 57.0124 8.408 57.0124 8.76C57.0124 9.4 57.4604 9.72 58.3564 9.72ZM65.8194 4.152V4.184H65.8354C66.0167 3.87467 66.278 3.61867 66.6194 3.416C66.9607 3.21333 67.35 3.112 67.7874 3.112C68.1394 3.112 68.4647 3.18133 68.7634 3.32C69.0834 3.49067 69.2434 3.736 69.2434 4.056C69.2434 4.32267 69.1634 4.54133 69.0034 4.712C68.8434 4.88267 68.63 4.968 68.3634 4.968C68.246 4.968 68.1074 4.94133 67.9474 4.888C67.6487 4.80267 67.4087 4.76 67.2274 4.76C66.2887 4.76 65.8194 5.41067 65.8194 6.712V10.136C65.8194 10.424 65.734 10.6533 65.5634 10.824C65.4034 10.9947 65.19 11.08 64.9234 11.08C64.6567 11.08 64.438 10.9947 64.2674 10.824C64.1074 10.6533 64.0274 10.424 64.0274 10.136V4.152C64.0274 3.864 64.1074 3.63467 64.2674 3.464C64.438 3.29333 64.6567 3.208 64.9234 3.208C65.19 3.208 65.4034 3.29333 65.5634 3.464C65.734 3.63467 65.8194 3.864 65.8194 4.152Z" fill="#F8F9FA"/>
<path fill-rule="evenodd" clip-rule="evenodd" d="M20 6.42906C20 6.23964 19.9248 6.05797 19.7908 5.92402C19.6569 5.79007 19.4752 5.71482 19.2858 5.71482H2.43969L6.93512 1.22082C7.00153 1.15442 7.0542 1.07558 7.09014 0.988816C7.12608 0.902051 7.14458 0.809056 7.14458 0.715142C7.14458 0.621229 7.12608 0.528234 7.09014 0.441469C7.0542 0.354704 7.00153 0.275867 6.93512 0.20946C6.86871 0.143053 6.78988 0.0903763 6.70311 0.054437C6.61635 0.0184978 6.52335 0 6.42944 0C6.33552 0 6.24253 0.0184978 6.15576 0.054437C6.069 0.0903763 5.99016 0.143053 5.92376 0.20946L0.209835 5.92338C0.14332 5.98973 0.0905481 6.06855 0.0545412 6.15532C0.0185342 6.24209 0 6.33512 0 6.42906C0 6.52301 0.0185342 6.61603 0.0545412 6.70281C0.0905481 6.78958 0.14332 6.8684 0.209835 6.93475L5.92376 12.6487C5.99016 12.7151 6.069 12.7678 6.15576 12.8037C6.24253 12.8396 6.33552 12.8581 6.42944 12.8581C6.52335 12.8581 6.61635 12.8396 6.70311 12.8037C6.78988 12.7678 6.86871 12.7151 6.93512 12.6487C7.00153 12.5823 7.0542 12.5034 7.09014 12.4167C7.12608 12.3299 7.14458 12.2369 7.14458 12.143C7.14458 12.0491 7.12608 11.9561 7.09014 11.8693C7.0542 11.7825 7.00153 11.7037 6.93512 11.6373L2.43969 7.1433H19.2858C19.4752 7.1433 19.6569 7.06805 19.7908 6.93411C19.9248 6.80016 20 6.61849 20 6.42906Z" fill="#F8F9FA"/>
</svg>
