<svg width="31" height="31" viewBox="0 0 31 31" fill="none" xmlns="http://www.w3.org/2000/svg">
<path fill-rule="evenodd" clip-rule="evenodd" d="M9.00165 3.1889C9.09164 3.09869 9.19854 3.02711 9.31623 2.97827C9.43393 2.92944 9.5601 2.9043 9.68752 2.9043C9.81495 2.9043 9.94112 2.92944 10.0588 2.97827C10.1765 3.02711 10.2834 3.09869 10.3734 3.1889L21.9984 14.8139C22.0886 14.9039 22.1602 15.0108 22.209 15.1285C22.2579 15.2462 22.283 15.3724 22.283 15.4998C22.283 15.6272 22.2579 15.7534 22.209 15.8711C22.1602 15.9888 22.0886 16.0957 21.9984 16.1857L10.3734 27.8107C10.1915 27.9926 9.94478 28.0947 9.68752 28.0947C9.43027 28.0947 9.18355 27.9926 9.00165 27.8107C8.81974 27.6287 8.71755 27.382 8.71755 27.1248C8.71755 26.8675 8.81974 26.6208 9.00165 26.4389L19.9427 15.4998L9.00165 4.56065C8.91143 4.47067 8.83985 4.36376 8.79102 4.24607C8.74218 4.12838 8.71704 4.0022 8.71704 3.87478C8.71704 3.74735 8.74218 3.62118 8.79102 3.50349C8.83985 3.38579 8.91143 3.27889 9.00165 3.1889Z" fill="#494949"/>
</svg>
