<svg width="19" height="13" viewBox="0 0 19 13" fill="none" xmlns="http://www.w3.org/2000/svg">
<path d="M17.781 0.669559C17.8508 0.739228 17.9062 0.821991 17.944 0.913109C17.9818 1.00423 18.0013 1.10191 18.0013 1.20056C18.0013 1.29921 17.9818 1.39689 17.944 1.48801C17.9062 1.57913 17.8508 1.66189 17.781 1.73156L7.28097 12.2316C7.2113 12.3014 7.12854 12.3568 7.03742 12.3946C6.9463 12.4324 6.84862 12.4519 6.74997 12.4519C6.65132 12.4519 6.55364 12.4324 6.46252 12.3946C6.3714 12.3568 6.28864 12.3014 6.21897 12.2316L0.968971 6.98156C0.828141 6.84073 0.749023 6.64972 0.749023 6.45056C0.749023 6.2514 0.828141 6.06039 0.968971 5.91956C1.1098 5.77873 1.30081 5.69961 1.49997 5.69961C1.69913 5.69961 1.89014 5.77873 2.03097 5.91956L6.74997 10.6401L16.719 0.669559C16.7886 0.599714 16.8714 0.5443 16.9625 0.506491C17.0536 0.468681 17.1513 0.449219 17.25 0.449219C17.3486 0.449219 17.4463 0.468681 17.5374 0.506491C17.6285 0.5443 17.7113 0.599714 17.781 0.669559Z" fill="#009DCC"/>
</svg>
