<svg width="36" height="37" viewBox="0 0 36 37" fill="none" xmlns="http://www.w3.org/2000/svg">
<path d="M25.956 32.2608C27.7347 30.4871 29.1453 28.3793 30.1068 26.0587C31.0682 23.738 31.5616 21.2503 31.5585 18.7383C31.5616 16.2264 31.0682 13.7386 30.1068 11.418C29.1453 9.09732 27.7347 6.98956 25.956 5.21582L24.363 6.80657C25.9325 8.37165 27.1771 10.2315 28.0254 12.2791C28.8738 14.3268 29.3091 16.5219 29.3063 18.7383C29.3063 23.3981 27.4163 27.6168 24.363 30.6701L25.956 32.2608Z" fill="#6F2282"/>
<path d="M22.7719 29.0795C24.132 27.723 25.2106 26.1111 25.9458 24.3364C26.681 22.5618 27.0582 20.6594 27.0559 18.7385C27.0582 16.8176 26.681 14.9151 25.9458 13.1405C25.2106 11.3658 24.132 9.75395 22.7719 8.39746L21.1812 9.98821C22.332 11.136 23.2447 12.5 23.8667 14.0016C24.4888 15.5033 24.8079 17.1131 24.8059 18.7385C24.8085 20.3641 24.4899 21.9742 23.8682 23.4762C23.2465 24.9783 22.3341 26.3427 21.1834 27.491L22.7719 29.0795Z" fill="#6F2282"/>
<path d="M19.5907 25.8975C20.5323 24.9584 21.279 23.8424 21.788 22.6137C22.2969 21.385 22.558 20.0679 22.5562 18.738C22.558 17.4081 22.2969 16.091 21.788 14.8623C21.279 13.6337 20.5323 12.5177 19.5907 11.5785L18 13.1693C18.7323 13.8998 19.3131 14.7678 19.7089 15.7235C20.1047 16.6792 20.3077 17.7036 20.3062 18.738C20.3076 19.7724 20.1045 20.7968 19.7087 21.7525C19.3129 22.7081 18.7322 23.5762 18 24.3068L19.5907 25.8975ZM15.1132 8.72552C15.3039 8.81733 15.4647 8.96104 15.5773 9.14013C15.69 9.31923 15.7498 9.52645 15.75 9.73802V27.738C15.7497 27.9497 15.6897 28.157 15.5768 28.3361C15.464 28.5152 15.3029 28.6589 15.1121 28.7505C14.9212 28.8422 14.7084 28.8781 14.4981 28.8542C14.2878 28.8304 14.0884 28.7476 13.923 28.6155L8.60625 24.363H3.375C3.07663 24.363 2.79048 24.2445 2.5795 24.0335C2.36853 23.8225 2.25 23.5364 2.25 23.238V14.238C2.25 13.9396 2.36853 13.6535 2.5795 13.4425C2.79048 13.2315 3.07663 13.113 3.375 13.113H8.60625L13.923 8.86052C14.0885 8.72819 14.2881 8.64531 14.4987 8.62143C14.7092 8.59754 14.9223 8.63362 15.1132 8.72552Z" fill="#6F2282"/>
</svg>
