<svg width="120" height="130" viewBox="0 0 120 130" fill="none" xmlns="http://www.w3.org/2000/svg">
<rect x="0.5" y="0.5" width="119" height="129" rx="33.5" fill="#6F2282" stroke="url(#paint0_linear)"/>
<path d="M36.8169 101.172C36.5769 100.896 36.4569 100.59 36.4569 100.254C36.4569 99.942 36.5649 99.678 36.7809 99.462C37.0089 99.246 37.2909 99.138 37.6269 99.138C37.9149 99.138 38.2509 99.27 38.6349 99.534C38.9469 99.75 39.3129 99.858 39.7329 99.858C40.8489 99.858 41.4069 99.168 41.4069 97.788V91.056C41.4069 90.636 41.5269 90.3 41.7669 90.048C42.0189 89.784 42.3369 89.652 42.7209 89.652C43.1169 89.652 43.4349 89.778 43.6749 90.03C43.9269 90.282 44.0529 90.624 44.0529 91.056V97.608C44.0529 99.096 43.6689 100.236 42.9009 101.028C42.1449 101.808 41.0589 102.198 39.6429 102.198C39.0789 102.198 38.5269 102.102 37.9869 101.91C37.4589 101.706 37.0689 101.46 36.8169 101.172ZM52.3417 101.55C51.6937 101.982 50.8957 102.198 49.9477 102.198C48.9997 102.198 48.1957 101.982 47.5357 101.55C46.8877 101.118 46.4317 100.5 46.1677 99.696C45.9757 99.084 45.8797 98.4 45.8797 97.644C45.8797 96.888 45.9757 96.204 46.1677 95.592C46.4317 94.788 46.8877 94.17 47.5357 93.738C48.1957 93.306 48.9997 93.09 49.9477 93.09C50.8957 93.09 51.6937 93.306 52.3417 93.738C53.0017 94.17 53.4637 94.788 53.7277 95.592C53.9197 96.204 54.0157 96.888 54.0157 97.644C54.0157 98.4 53.9197 99.084 53.7277 99.696C53.4637 100.5 53.0017 101.118 52.3417 101.55ZM48.5977 99.102C48.8017 99.75 49.2517 100.074 49.9477 100.074C50.6437 100.074 51.0937 99.75 51.2977 99.102C51.4057 98.778 51.4597 98.292 51.4597 97.644C51.4597 96.996 51.4057 96.51 51.2977 96.186C51.0937 95.538 50.6437 95.214 49.9477 95.214C49.2517 95.214 48.8017 95.538 48.5977 96.186C48.4897 96.51 48.4357 96.996 48.4357 97.644C48.4357 98.292 48.4897 98.778 48.5977 99.102ZM59.0426 105.438C58.4666 105.438 57.9026 105.336 57.3506 105.132C56.8106 104.94 56.4266 104.718 56.1986 104.466C55.9706 104.226 55.8566 103.95 55.8566 103.638C55.8566 103.35 55.9586 103.098 56.1626 102.882C56.3666 102.678 56.6186 102.576 56.9186 102.576C57.1826 102.576 57.5126 102.684 57.9086 102.9C58.3526 103.14 58.7726 103.26 59.1686 103.26C60.2966 103.26 60.8606 102.636 60.8606 101.388V100.686H60.8426C60.3506 101.334 59.6126 101.658 58.6286 101.658C57.9086 101.658 57.2966 101.472 56.7926 101.1C56.2886 100.728 55.9226 100.194 55.6946 99.498C55.5026 98.91 55.4066 98.202 55.4066 97.374C55.4066 96.546 55.5026 95.838 55.6946 95.25C55.9226 94.554 56.2886 94.02 56.7926 93.648C57.2966 93.276 57.9086 93.09 58.6286 93.09C59.6606 93.09 60.4166 93.426 60.8966 94.098H60.9146C61.0826 93.486 61.4846 93.18 62.1206 93.18C62.4926 93.18 62.7926 93.3 63.0206 93.54C63.2606 93.78 63.3806 94.104 63.3806 94.512V101.046C63.3806 103.974 61.9346 105.438 59.0426 105.438ZM59.4206 99.552C60.0566 99.552 60.4826 99.234 60.6986 98.598C60.8066 98.274 60.8606 97.872 60.8606 97.392C60.8606 96.9 60.8066 96.492 60.6986 96.168C60.4826 95.532 60.0566 95.214 59.4206 95.214C58.7726 95.214 58.3406 95.532 58.1246 96.168C58.0166 96.492 57.9626 96.9 57.9626 97.392C57.9626 97.872 58.0166 98.274 58.1246 98.598C58.3406 99.234 58.7726 99.552 59.4206 99.552ZM71.6776 101.55C71.0296 101.982 70.2316 102.198 69.2836 102.198C68.3356 102.198 67.5316 101.982 66.8716 101.55C66.2236 101.118 65.7676 100.5 65.5036 99.696C65.3116 99.084 65.2156 98.4 65.2156 97.644C65.2156 96.888 65.3116 96.204 65.5036 95.592C65.7676 94.788 66.2236 94.17 66.8716 93.738C67.5316 93.306 68.3356 93.09 69.2836 93.09C70.2316 93.09 71.0296 93.306 71.6776 93.738C72.3376 94.17 72.7996 94.788 73.0636 95.592C73.2556 96.204 73.3516 96.888 73.3516 97.644C73.3516 98.4 73.2556 99.084 73.0636 99.696C72.7996 100.5 72.3376 101.118 71.6776 101.55ZM67.9336 99.102C68.1376 99.75 68.5876 100.074 69.2836 100.074C69.9796 100.074 70.4296 99.75 70.6336 99.102C70.7416 98.778 70.7956 98.292 70.7956 97.644C70.7956 96.996 70.7416 96.51 70.6336 96.186C70.4296 95.538 69.9796 95.214 69.2836 95.214C68.5876 95.214 68.1376 95.538 67.9336 96.186C67.8256 96.51 67.7716 96.996 67.7716 97.644C67.7716 98.292 67.8256 98.778 67.9336 99.102ZM78.5585 102.198C77.3225 102.198 76.2605 101.922 75.3725 101.37C74.9645 101.118 74.7605 100.782 74.7605 100.362C74.7605 100.086 74.8625 99.852 75.0665 99.66C75.2705 99.456 75.5165 99.354 75.8045 99.354C76.0205 99.354 76.2665 99.432 76.5425 99.588C77.2745 100.008 77.9885 100.218 78.6845 100.218C79.5845 100.218 80.0345 99.948 80.0345 99.408C80.0345 99.192 79.9445 99.03 79.7645 98.922C79.5965 98.802 79.2665 98.718 78.7745 98.67L77.8205 98.562C75.9245 98.346 74.9765 97.458 74.9765 95.898C74.9765 95.034 75.2945 94.35 75.9305 93.846C76.5665 93.342 77.4485 93.09 78.5765 93.09C79.5965 93.09 80.4785 93.282 81.2225 93.666C81.7145 93.918 81.9605 94.248 81.9605 94.656C81.9605 94.944 81.8645 95.184 81.6725 95.376C81.4925 95.556 81.2585 95.646 80.9705 95.646C80.7905 95.646 80.5505 95.574 80.2505 95.43C79.7105 95.178 79.1225 95.052 78.4865 95.052C77.7545 95.052 77.3885 95.28 77.3885 95.736C77.3885 95.952 77.4725 96.114 77.6405 96.222C77.8085 96.33 78.1265 96.408 78.5945 96.456L79.5485 96.564C81.4805 96.78 82.4465 97.662 82.4465 99.21C82.4465 100.11 82.0985 100.836 81.4025 101.388C80.7185 101.928 79.7705 102.198 78.5585 102.198Z" fill="white"/>
<path d="M73.7398 38.481C77.2515 38.481 80.6193 39.7999 83.1024 42.1475C85.5855 44.4952 86.9805 47.6794 86.9805 50.9995C86.9805 54.3196 85.5855 57.5037 83.1024 59.8514C80.6193 62.1991 77.2515 63.518 73.7398 63.518C69.6231 63.518 65.9639 61.7426 63.5324 58.9658H57.4657C55.0342 61.7426 51.375 63.518 47.2583 63.518C43.7467 63.518 40.3788 62.1991 37.8957 59.8514C35.4126 57.5037 34.0176 54.3196 34.0176 50.9995C34.0176 47.6794 35.4126 44.4952 37.8957 42.1475C40.3788 39.7999 43.7467 38.481 47.2583 38.481H73.7398ZM47.2583 43.0331C45.0236 43.0331 42.8805 43.8725 41.3003 45.3664C39.7201 46.8604 38.8324 48.8867 38.8324 50.9995C38.8324 53.1123 39.7201 55.1385 41.3003 56.6325C42.8805 58.1265 45.0236 58.9658 47.2583 58.9658C50.6287 58.9658 53.5176 57.0994 54.8657 54.4136H66.1324C67.4805 57.0994 70.3694 58.9658 73.7398 58.9658C75.9745 58.9658 78.1177 58.1265 79.6978 56.6325C81.278 55.1385 82.1657 53.1123 82.1657 50.9995C82.1657 48.8867 81.278 46.8604 79.6978 45.3664C78.1177 43.8725 75.9745 43.0331 73.7398 43.0331H47.2583ZM45.4528 45.8783H49.0639V49.2924H52.675V52.7065H49.0639V56.1207H45.4528V52.7065H41.8417V49.2924H45.4528V45.8783ZM71.9342 50.9995C72.5727 50.9995 73.1851 51.2393 73.6365 51.6661C74.088 52.093 74.3417 52.6719 74.3417 53.2756C74.3417 53.8792 74.088 54.4582 73.6365 54.885C73.1851 55.3119 72.5727 55.5517 71.9342 55.5517C71.2958 55.5517 70.6834 55.3119 70.2319 54.885C69.7805 54.4582 69.5268 53.8792 69.5268 53.2756C69.5268 52.6719 69.7805 52.093 70.2319 51.6661C70.6834 51.2393 71.2958 50.9995 71.9342 50.9995ZM76.7491 46.4473C77.3875 46.4473 77.9999 46.6871 78.4514 47.1139C78.9028 47.5408 79.1565 48.1197 79.1565 48.7234C79.1565 49.327 78.9028 49.906 78.4514 50.3328C77.9999 50.7597 77.3875 50.9995 76.7491 50.9995C76.1106 50.9995 75.4982 50.7597 75.0468 50.3328C74.5953 49.906 74.3417 49.327 74.3417 48.7234C74.3417 48.1197 74.5953 47.5408 75.0468 47.1139C75.4982 46.6871 76.1106 46.4473 76.7491 46.4473Z" fill="white"/>
<defs>
<linearGradient id="paint0_linear" x1="60" y1="0" x2="60" y2="130" gradientUnits="userSpaceOnUse">
<stop stop-color="#992EB4"/>
<stop offset="0.520833" stop-color="#6F2282"/>
<stop offset="1" stop-color="#992EB4"/>
</linearGradient>
</defs>
</svg>
