<svg width="120" height="130" viewBox="0 0 120 130" fill="none" xmlns="http://www.w3.org/2000/svg">
<rect x="0.5" y="0.5" width="119" height="129" rx="33.5" fill="#E73089" stroke="url(#paint0_linear)"/>
<path d="M39.3076 92.83V83.236C39.3076 82.756 39.4396 82.372 39.7036 82.084C39.9676 81.796 40.3216 81.652 40.7656 81.652C41.1496 81.652 41.4616 81.76 41.7016 81.976C41.9536 82.192 42.1876 82.54 42.4036 83.02L45.0136 88.924H45.0856L47.6416 83.02C47.8456 82.54 48.0676 82.192 48.3076 81.976C48.5596 81.76 48.8776 81.652 49.2616 81.652C49.7056 81.652 50.0536 81.796 50.3056 82.084C50.5696 82.372 50.7016 82.756 50.7016 83.236V92.83C50.7016 93.226 50.5876 93.538 50.3596 93.766C50.1436 93.994 49.8556 94.108 49.4956 94.108C49.1356 94.108 48.8416 93.994 48.6136 93.766C48.3976 93.538 48.2896 93.226 48.2896 92.83V86.926H48.1996L46.3096 91.318C46.1176 91.75 45.9316 92.044 45.7516 92.2C45.5716 92.356 45.3256 92.434 45.0136 92.434C44.7016 92.434 44.4556 92.356 44.2756 92.2C44.0956 92.044 43.9096 91.75 43.7176 91.318L41.8096 86.926H41.7196V92.83C41.7196 93.226 41.6056 93.538 41.3776 93.766C41.1616 93.994 40.8796 94.108 40.5316 94.108C40.1596 94.108 39.8596 93.994 39.6316 93.766C39.4156 93.538 39.3076 93.226 39.3076 92.83ZM60.7041 92.2C60.8481 92.428 60.9201 92.674 60.9201 92.938C60.9201 93.274 60.7941 93.556 60.5421 93.784C60.3021 94 60.0081 94.108 59.6601 94.108C59.2161 94.108 58.8741 93.946 58.6341 93.622L58.4181 93.316H58.4001C57.9201 93.904 57.0981 94.198 55.9341 94.198C54.8421 94.198 54.0141 93.964 53.4501 93.496C52.8981 93.028 52.6221 92.374 52.6221 91.534C52.6221 90.598 52.9401 89.896 53.5761 89.428C54.2241 88.96 55.1061 88.726 56.2221 88.726H57.7881C57.8601 88.726 57.8961 88.69 57.8961 88.618V88.528C57.8961 87.664 57.3021 87.232 56.1141 87.232C55.6101 87.232 55.1421 87.316 54.7101 87.484C54.4581 87.568 54.2601 87.61 54.1161 87.61C53.8161 87.61 53.5701 87.52 53.3781 87.34C53.1981 87.148 53.1081 86.902 53.1081 86.602C53.1081 86.146 53.3241 85.81 53.7561 85.594C54.4281 85.258 55.3161 85.09 56.4201 85.09C57.7041 85.09 58.6701 85.396 59.3181 86.008C59.9781 86.62 60.3081 87.484 60.3081 88.6V90.976C60.3081 91.348 60.3621 91.624 60.4701 91.804L60.7041 92.2ZM56.2761 92.308C57.3561 92.308 57.8961 91.906 57.8961 91.102V90.508C57.8961 90.436 57.8601 90.4 57.7881 90.4H56.5641C55.5321 90.4 55.0161 90.73 55.0161 91.39C55.0161 92.002 55.4361 92.308 56.2761 92.308ZM64.6699 96.988C64.4419 97.228 64.1419 97.348 63.7699 97.348C63.3979 97.348 63.0919 97.228 62.8519 96.988C62.6239 96.748 62.5099 96.424 62.5099 96.016V86.512C62.5099 86.104 62.6239 85.78 62.8519 85.54C63.0919 85.3 63.3979 85.18 63.7699 85.18C64.4059 85.18 64.8079 85.486 64.9759 86.098H64.9939C65.4739 85.426 66.2299 85.09 67.2619 85.09C67.9699 85.09 68.5939 85.288 69.1339 85.684C69.6739 86.08 70.0579 86.62 70.2859 87.304C70.4899 87.916 70.5919 88.696 70.5919 89.644C70.5919 90.592 70.4899 91.372 70.2859 91.984C70.0579 92.668 69.6739 93.208 69.1339 93.604C68.5939 94 67.9699 94.198 67.2619 94.198C66.2059 94.198 65.4679 93.886 65.0479 93.262H65.0299V96.016C65.0299 96.424 64.9099 96.748 64.6699 96.988ZM66.5239 92.074C67.2079 92.074 67.6579 91.738 67.8739 91.066C67.9819 90.742 68.0359 90.268 68.0359 89.644C68.0359 89.02 67.9819 88.546 67.8739 88.222C67.6579 87.55 67.2079 87.214 66.5239 87.214C65.8519 87.214 65.4079 87.55 65.1919 88.222C65.0839 88.546 65.0299 89.02 65.0299 89.644C65.0299 90.268 65.0839 90.742 65.1919 91.066C65.4079 91.738 65.8519 92.074 66.5239 92.074ZM80.128 92.2C80.272 92.428 80.344 92.674 80.344 92.938C80.344 93.274 80.218 93.556 79.966 93.784C79.726 94 79.432 94.108 79.084 94.108C78.64 94.108 78.298 93.946 78.058 93.622L77.842 93.316H77.824C77.344 93.904 76.522 94.198 75.358 94.198C74.266 94.198 73.438 93.964 72.874 93.496C72.322 93.028 72.046 92.374 72.046 91.534C72.046 90.598 72.364 89.896 73 89.428C73.648 88.96 74.53 88.726 75.646 88.726H77.212C77.284 88.726 77.32 88.69 77.32 88.618V88.528C77.32 87.664 76.726 87.232 75.538 87.232C75.034 87.232 74.566 87.316 74.134 87.484C73.882 87.568 73.684 87.61 73.54 87.61C73.24 87.61 72.994 87.52 72.802 87.34C72.622 87.148 72.532 86.902 72.532 86.602C72.532 86.146 72.748 85.81 73.18 85.594C73.852 85.258 74.74 85.09 75.844 85.09C77.128 85.09 78.094 85.396 78.742 86.008C79.402 86.62 79.732 87.484 79.732 88.6V90.976C79.732 91.348 79.786 91.624 79.894 91.804L80.128 92.2ZM75.7 92.308C76.78 92.308 77.32 91.906 77.32 91.102V90.508C77.32 90.436 77.284 90.4 77.212 90.4H75.988C74.956 90.4 74.44 90.73 74.44 91.39C74.44 92.002 74.86 92.308 75.7 92.308ZM33.5859 108.83V99.236C33.5859 98.756 33.7179 98.372 33.9819 98.084C34.2459 97.796 34.5999 97.652 35.0439 97.652C35.4279 97.652 35.7399 97.76 35.9799 97.976C36.2319 98.192 36.4659 98.54 36.6819 99.02L39.2919 104.924H39.3639L41.9199 99.02C42.1239 98.54 42.3459 98.192 42.5859 97.976C42.8379 97.76 43.1559 97.652 43.5399 97.652C43.9839 97.652 44.3319 97.796 44.5839 98.084C44.8479 98.372 44.9799 98.756 44.9799 99.236V108.83C44.9799 109.226 44.8659 109.538 44.6379 109.766C44.4219 109.994 44.1339 110.108 43.7739 110.108C43.4139 110.108 43.1199 109.994 42.8919 109.766C42.6759 109.538 42.5679 109.226 42.5679 108.83V102.926H42.4779L40.5879 107.318C40.3959 107.75 40.2099 108.044 40.0299 108.2C39.8499 108.356 39.6039 108.434 39.2919 108.434C38.9799 108.434 38.7339 108.356 38.5539 108.2C38.3739 108.044 38.1879 107.75 37.9959 107.318L36.0879 102.926H35.9979V108.83C35.9979 109.226 35.8839 109.538 35.6559 109.766C35.4399 109.994 35.1579 110.108 34.8099 110.108C34.4379 110.108 34.1379 109.994 33.9099 109.766C33.6939 109.538 33.5859 109.226 33.5859 108.83ZM51.0224 110.198C50.0264 110.198 49.1924 109.982 48.5204 109.55C47.8484 109.118 47.3864 108.506 47.1344 107.714C46.9424 107.138 46.8464 106.448 46.8464 105.644C46.8464 104.792 46.9364 104.096 47.1164 103.556C47.3804 102.764 47.8364 102.158 48.4844 101.738C49.1444 101.306 49.9424 101.09 50.8784 101.09C51.8384 101.09 52.6424 101.306 53.2904 101.738C53.9384 102.158 54.3884 102.758 54.6404 103.538C54.8324 104.126 54.9284 104.804 54.9284 105.572C54.9284 105.824 54.8504 106.028 54.6944 106.184C54.5504 106.328 54.3524 106.4 54.1004 106.4H49.4744C49.4024 106.4 49.3664 106.436 49.3664 106.508C49.3664 106.664 49.3964 106.832 49.4564 107.012C49.6964 107.768 50.2964 108.146 51.2564 108.146C51.7964 108.146 52.3424 107.996 52.8944 107.696C53.1944 107.516 53.4824 107.426 53.7584 107.426C54.0224 107.426 54.2384 107.516 54.4064 107.696C54.5864 107.876 54.6764 108.098 54.6764 108.362C54.6764 108.734 54.5084 109.034 54.1724 109.262C53.2724 109.886 52.2224 110.198 51.0224 110.198ZM49.4744 104.726H52.3364C52.4084 104.726 52.4444 104.69 52.4444 104.618C52.4444 104.39 52.4144 104.174 52.3544 103.97C52.1504 103.334 51.6644 103.016 50.8964 103.016C50.1404 103.016 49.6604 103.334 49.4564 103.97C49.3964 104.174 49.3664 104.39 49.3664 104.618C49.3664 104.69 49.4024 104.726 49.4744 104.726ZM64.1686 109.748C63.9406 109.988 63.6406 110.108 63.2686 110.108C62.8966 110.108 62.5906 109.988 62.3506 109.748C62.1226 109.508 62.0086 109.184 62.0086 108.776V104.816C62.0086 104.324 61.8886 103.94 61.6486 103.664C61.4206 103.376 61.0846 103.232 60.6406 103.232C60.1966 103.232 59.8606 103.376 59.6326 103.664C59.4046 103.94 59.2906 104.324 59.2906 104.816V108.776C59.2906 109.184 59.1706 109.508 58.9306 109.748C58.7026 109.988 58.4026 110.108 58.0306 110.108C57.6586 110.108 57.3526 109.988 57.1126 109.748C56.8846 109.508 56.7706 109.184 56.7706 108.776V102.512C56.7706 102.104 56.8846 101.78 57.1126 101.54C57.3526 101.3 57.6586 101.18 58.0306 101.18C58.6786 101.18 59.0806 101.486 59.2366 102.098H59.2546C59.7706 101.426 60.5386 101.09 61.5586 101.09C62.4946 101.09 63.2206 101.39 63.7366 101.99C64.2646 102.578 64.5286 103.358 64.5286 104.33V108.776C64.5286 109.184 64.4086 109.508 64.1686 109.748ZM69.7979 110.108H69.6899C68.6819 110.108 67.9619 109.874 67.5299 109.406C67.1099 108.938 66.8999 108.2 66.8999 107.192V103.268C66.8999 103.196 66.8579 103.16 66.7739 103.16H66.7019C66.3779 103.16 66.1259 103.076 65.9459 102.908C65.7779 102.74 65.6939 102.512 65.6939 102.224C65.6939 101.936 65.7779 101.708 65.9459 101.54C66.1259 101.372 66.3779 101.288 66.7019 101.288H66.7739C66.8579 101.288 66.8999 101.252 66.8999 101.18V99.884C66.8999 99.476 67.0139 99.152 67.2419 98.912C67.4819 98.672 67.7879 98.552 68.1599 98.552C68.5319 98.552 68.8319 98.672 69.0599 98.912C69.2879 99.152 69.4019 99.476 69.4019 99.884V101.18C69.4019 101.252 69.4379 101.288 69.5099 101.288H70.1939C70.5179 101.288 70.7639 101.372 70.9319 101.54C71.1119 101.708 71.2019 101.936 71.2019 102.224C71.2019 102.512 71.1119 102.74 70.9319 102.908C70.7639 103.076 70.5179 103.16 70.1939 103.16H69.5099C69.4379 103.16 69.4019 103.196 69.4019 103.268V107.12C69.4019 107.6 69.6239 107.864 70.0679 107.912C70.4399 107.96 70.7159 108.086 70.8959 108.29C71.0879 108.494 71.1839 108.74 71.1839 109.028C71.1839 109.352 71.0639 109.616 70.8239 109.82C70.5959 110.012 70.2539 110.108 69.7979 110.108ZM80.3828 108.2C80.5268 108.428 80.5988 108.674 80.5988 108.938C80.5988 109.274 80.4728 109.556 80.2208 109.784C79.9808 110 79.6868 110.108 79.3388 110.108C78.8948 110.108 78.5528 109.946 78.3128 109.622L78.0968 109.316H78.0788C77.5988 109.904 76.7768 110.198 75.6128 110.198C74.5208 110.198 73.6928 109.964 73.1288 109.496C72.5768 109.028 72.3008 108.374 72.3008 107.534C72.3008 106.598 72.6188 105.896 73.2548 105.428C73.9028 104.96 74.7848 104.726 75.9008 104.726H77.4668C77.5388 104.726 77.5748 104.69 77.5748 104.618V104.528C77.5748 103.664 76.9808 103.232 75.7928 103.232C75.2888 103.232 74.8208 103.316 74.3888 103.484C74.1368 103.568 73.9388 103.61 73.7948 103.61C73.4948 103.61 73.2488 103.52 73.0568 103.34C72.8768 103.148 72.7868 102.902 72.7868 102.602C72.7868 102.146 73.0028 101.81 73.4348 101.594C74.1068 101.258 74.9948 101.09 76.0988 101.09C77.3828 101.09 78.3488 101.396 78.9968 102.008C79.6568 102.62 79.9868 103.484 79.9868 104.6V106.976C79.9868 107.348 80.0408 107.624 80.1488 107.804L80.3828 108.2ZM75.9548 108.308C77.0348 108.308 77.5748 107.906 77.5748 107.102V106.508C77.5748 106.436 77.5388 106.4 77.4668 106.4H76.2428C75.2108 106.4 74.6948 106.73 74.6948 107.39C74.6948 108.002 75.1148 108.308 75.9548 108.308ZM84.9426 110.108H84.8346C83.8746 110.108 83.1846 109.88 82.7646 109.424C82.3566 108.956 82.1526 108.26 82.1526 107.336V98.984C82.1526 98.576 82.2666 98.252 82.4946 98.012C82.7346 97.772 83.0406 97.652 83.4126 97.652C83.7846 97.652 84.0846 97.772 84.3126 98.012C84.5526 98.252 84.6726 98.576 84.6726 98.984V107.12C84.6726 107.576 84.8646 107.84 85.2486 107.912C85.9206 108.032 86.2566 108.398 86.2566 109.01C86.2566 109.334 86.1426 109.598 85.9146 109.802C85.6986 110.006 85.3746 110.108 84.9426 110.108Z" fill="white"/>
<path d="M72.7506 32.75C74.3751 32.75 75.933 33.3558 77.0817 34.4341C78.2303 35.5125 78.8756 36.975 78.8756 38.5C78.8756 40.025 78.2303 41.4875 77.0817 42.5659C75.933 43.6442 74.3751 44.25 72.7506 44.25H66.6256C65.3588 44.2502 64.1231 43.8817 63.0887 43.1952C62.0543 42.5086 61.272 41.5379 60.8498 40.4167H58.459C56.2131 40.4167 54.3756 42.1417 54.3756 44.25V44.5777C55.5706 44.9736 56.6054 45.7078 57.3373 46.6789C58.0692 47.65 58.4623 48.8104 58.4623 50C58.4623 51.1896 58.0692 52.35 57.3373 53.3211C56.6054 54.2922 55.5706 55.0264 54.3756 55.4223V55.75C54.3756 57.8583 56.2131 59.5833 58.459 59.5833H60.8477C61.2709 58.4623 62.0536 57.4918 63.0883 56.8053C64.1229 56.1189 65.3587 55.7502 66.6256 55.75H72.7506C74.3751 55.75 75.933 56.3558 77.0817 57.4341C78.2303 58.5125 78.8756 59.975 78.8756 61.5C78.8756 63.025 78.2303 64.4875 77.0817 65.5659C75.933 66.6442 74.3751 67.25 72.7506 67.25H66.6256C65.3588 67.2502 64.1231 66.8817 63.0887 66.1952C62.0543 65.5086 61.272 64.5379 60.8498 63.4167H58.459C53.9469 63.4167 50.2923 59.9858 50.2923 55.75H46.209C44.5845 55.75 43.0266 55.1442 41.878 54.0659C40.7293 52.9875 40.084 51.525 40.084 50C40.084 48.475 40.7293 47.0125 41.878 45.9341C43.0266 44.8558 44.5845 44.25 46.209 44.25H50.2923C50.2923 40.0142 53.9469 36.5833 58.459 36.5833H60.8477C61.2709 35.4623 62.0536 34.4918 63.0883 33.8053C64.1229 33.1189 65.3587 32.7502 66.6256 32.75H72.7506ZM72.7506 59.5833H66.6256C66.0842 59.5833 65.5649 59.7853 65.182 60.1447C64.7991 60.5042 64.584 60.9917 64.584 61.5C64.584 62.0083 64.7991 62.4958 65.182 62.8553C65.5649 63.2147 66.0842 63.4167 66.6256 63.4167H72.7506C73.2921 63.4167 73.8114 63.2147 74.1943 62.8553C74.5772 62.4958 74.7923 62.0083 74.7923 61.5C74.7923 60.9917 74.5772 60.5042 74.1943 60.1447C73.8114 59.7853 73.2921 59.5833 72.7506 59.5833ZM52.334 48.0833H46.209C45.6675 48.0833 45.1482 48.2853 44.7653 48.6447C44.3824 49.0042 44.1673 49.4917 44.1673 50C44.1673 50.5083 44.3824 50.9958 44.7653 51.3553C45.1482 51.7147 45.6675 51.9167 46.209 51.9167H52.334C52.8755 51.9167 53.3948 51.7147 53.7777 51.3553C54.1605 50.9958 54.3756 50.5083 54.3756 50C54.3756 49.4917 54.1605 49.0042 53.7777 48.6447C53.3948 48.2853 52.8755 48.0833 52.334 48.0833ZM72.7506 36.5833H66.6256C66.0842 36.5833 65.5649 36.7853 65.182 37.1447C64.7991 37.5042 64.584 37.9917 64.584 38.5C64.584 39.0083 64.7991 39.4958 65.182 39.8553C65.5649 40.2147 66.0842 40.4167 66.6256 40.4167H72.7506C73.2921 40.4167 73.8114 40.2147 74.1943 39.8553C74.5772 39.4958 74.7923 39.0083 74.7923 38.5C74.7923 37.9917 74.5772 37.5042 74.1943 37.1447C73.8114 36.7853 73.2921 36.5833 72.7506 36.5833Z" fill="white"/>
<defs>
<linearGradient id="paint0_linear" x1="60" y1="0" x2="60" y2="130" gradientUnits="userSpaceOnUse">
<stop stop-color="#FF64AF"/>
<stop offset="0.520833" stop-color="#E73089"/>
<stop offset="1" stop-color="#FF64AF"/>
</linearGradient>
</defs>
</svg>
