<svg width="120" height="130" viewBox="0 0 120 130" fill="none" xmlns="http://www.w3.org/2000/svg">
<rect x="0.5" y="0.5" width="119" height="129" rx="33.5" fill="#009DCC" stroke="url(#paint0_linear)"/>
<path d="M30.3828 94.108C29.9868 94.108 29.6628 93.982 29.4108 93.73C29.1708 93.466 29.0508 93.124 29.0508 92.704V82.93C29.0508 82.57 29.1528 82.288 29.3568 82.084C29.5608 81.868 29.8428 81.76 30.2028 81.76H33.9828C35.3028 81.76 36.3408 82.12 37.0968 82.84C37.8648 83.56 38.2488 84.514 38.2488 85.702C38.2488 86.866 37.8648 87.814 37.0968 88.546C36.3288 89.266 35.2908 89.626 33.9828 89.626H31.8048C31.7328 89.626 31.6968 89.662 31.6968 89.734V92.704C31.6968 93.124 31.5708 93.466 31.3188 93.73C31.0788 93.982 30.7668 94.108 30.3828 94.108ZM33.8208 87.34C34.3728 87.34 34.8048 87.196 35.1168 86.908C35.4408 86.608 35.6028 86.206 35.6028 85.702C35.6028 85.198 35.4408 84.796 35.1168 84.496C34.8048 84.196 34.3728 84.046 33.8208 84.046H31.8048C31.7328 84.046 31.6968 84.082 31.6968 84.154V87.232C31.6968 87.304 31.7328 87.34 31.8048 87.34H33.8208ZM45.8377 93.55C45.1897 93.982 44.3917 94.198 43.4437 94.198C42.4957 94.198 41.6917 93.982 41.0317 93.55C40.3837 93.118 39.9277 92.5 39.6637 91.696C39.4717 91.084 39.3757 90.4 39.3757 89.644C39.3757 88.888 39.4717 88.204 39.6637 87.592C39.9277 86.788 40.3837 86.17 41.0317 85.738C41.6917 85.306 42.4957 85.09 43.4437 85.09C44.3917 85.09 45.1897 85.306 45.8377 85.738C46.4977 86.17 46.9597 86.788 47.2237 87.592C47.4157 88.204 47.5117 88.888 47.5117 89.644C47.5117 90.4 47.4157 91.084 47.2237 91.696C46.9597 92.5 46.4977 93.118 45.8377 93.55ZM42.0937 91.102C42.2977 91.75 42.7477 92.074 43.4437 92.074C44.1397 92.074 44.5897 91.75 44.7937 91.102C44.9017 90.778 44.9557 90.292 44.9557 89.644C44.9557 88.996 44.9017 88.51 44.7937 88.186C44.5897 87.538 44.1397 87.214 43.4437 87.214C42.7477 87.214 42.2977 87.538 42.0937 88.186C41.9857 88.51 41.9317 88.996 41.9317 89.644C41.9317 90.292 41.9857 90.778 42.0937 91.102ZM55.7427 94.108C55.1067 94.108 54.7047 93.802 54.5367 93.19H54.5187C54.0387 93.862 53.2827 94.198 52.2507 94.198C51.5427 94.198 50.9187 94 50.3787 93.604C49.8387 93.208 49.4547 92.668 49.2267 91.984C49.0227 91.372 48.9207 90.592 48.9207 89.644C48.9207 88.696 49.0227 87.916 49.2267 87.304C49.4547 86.62 49.8387 86.08 50.3787 85.684C50.9187 85.288 51.5427 85.09 52.2507 85.09C53.3067 85.09 54.0447 85.402 54.4647 86.026H54.4827V82.984C54.4827 82.576 54.5967 82.252 54.8247 82.012C55.0647 81.772 55.3707 81.652 55.7427 81.652C56.1147 81.652 56.4147 81.772 56.6427 82.012C56.8827 82.252 57.0027 82.576 57.0027 82.984V92.776C57.0027 93.184 56.8827 93.508 56.6427 93.748C56.4147 93.988 56.1147 94.108 55.7427 94.108ZM52.9887 92.074C53.6607 92.074 54.1047 91.738 54.3207 91.066C54.4287 90.742 54.4827 90.268 54.4827 89.644C54.4827 89.02 54.4287 88.546 54.3207 88.222C54.1047 87.55 53.6607 87.214 52.9887 87.214C52.3047 87.214 51.8547 87.55 51.6387 88.222C51.5307 88.546 51.4767 89.02 51.4767 89.644C51.4767 90.268 51.5307 90.742 51.6387 91.066C51.8547 91.738 52.3047 92.074 52.9887 92.074ZM62.8307 94.198C61.9067 94.198 61.1207 93.988 60.4727 93.568C59.8367 93.136 59.3867 92.518 59.1227 91.714C58.9307 91.162 58.8347 90.472 58.8347 89.644C58.8347 88.816 58.9307 88.126 59.1227 87.574C59.3867 86.77 59.8367 86.158 60.4727 85.738C61.1207 85.306 61.9067 85.09 62.8307 85.09C64.0187 85.09 64.9307 85.408 65.5667 86.044C65.9027 86.38 66.0707 86.716 66.0707 87.052C66.0707 87.364 65.9627 87.622 65.7467 87.826C65.5427 88.03 65.2847 88.132 64.9727 88.132C64.6727 88.132 64.3307 87.958 63.9467 87.61C63.6707 87.346 63.3107 87.214 62.8667 87.214C62.1827 87.214 61.7447 87.532 61.5527 88.168C61.4447 88.504 61.3907 88.996 61.3907 89.644C61.3907 90.292 61.4447 90.784 61.5527 91.12C61.7447 91.756 62.1827 92.074 62.8667 92.074C63.3107 92.074 63.6707 91.942 63.9467 91.678C64.3307 91.33 64.6727 91.156 64.9727 91.156C65.2847 91.156 65.5427 91.258 65.7467 91.462C65.9627 91.666 66.0707 91.924 66.0707 92.236C66.0707 92.572 65.9027 92.908 65.5667 93.244C64.9307 93.88 64.0187 94.198 62.8307 94.198ZM75.3379 92.2C75.4819 92.428 75.5539 92.674 75.5539 92.938C75.5539 93.274 75.4279 93.556 75.1759 93.784C74.9359 94 74.6419 94.108 74.2939 94.108C73.8499 94.108 73.5079 93.946 73.2679 93.622L73.0519 93.316H73.0339C72.5539 93.904 71.7319 94.198 70.5679 94.198C69.4759 94.198 68.6479 93.964 68.0839 93.496C67.5319 93.028 67.2559 92.374 67.2559 91.534C67.2559 90.598 67.5739 89.896 68.2099 89.428C68.8579 88.96 69.7399 88.726 70.8559 88.726H72.4219C72.4939 88.726 72.5299 88.69 72.5299 88.618V88.528C72.5299 87.664 71.9359 87.232 70.7479 87.232C70.2439 87.232 69.7759 87.316 69.3439 87.484C69.0919 87.568 68.8939 87.61 68.7499 87.61C68.4499 87.61 68.2039 87.52 68.0119 87.34C67.8319 87.148 67.7419 86.902 67.7419 86.602C67.7419 86.146 67.9579 85.81 68.3899 85.594C69.0619 85.258 69.9499 85.09 71.0539 85.09C72.3379 85.09 73.3039 85.396 73.9519 86.008C74.6119 86.62 74.9419 87.484 74.9419 88.6V90.976C74.9419 91.348 74.9959 91.624 75.1039 91.804L75.3379 92.2ZM70.9099 92.308C71.9899 92.308 72.5299 91.906 72.5299 91.102V90.508C72.5299 90.436 72.4939 90.4 72.4219 90.4H71.1979C70.1659 90.4 69.6499 90.73 69.6499 91.39C69.6499 92.002 70.0699 92.308 70.9099 92.308ZM80.5097 94.198C79.2737 94.198 78.2117 93.922 77.3237 93.37C76.9157 93.118 76.7117 92.782 76.7117 92.362C76.7117 92.086 76.8137 91.852 77.0177 91.66C77.2217 91.456 77.4677 91.354 77.7557 91.354C77.9717 91.354 78.2177 91.432 78.4937 91.588C79.2257 92.008 79.9397 92.218 80.6357 92.218C81.5357 92.218 81.9857 91.948 81.9857 91.408C81.9857 91.192 81.8957 91.03 81.7157 90.922C81.5477 90.802 81.2177 90.718 80.7257 90.67L79.7717 90.562C77.8757 90.346 76.9277 89.458 76.9277 87.898C76.9277 87.034 77.2457 86.35 77.8817 85.846C78.5177 85.342 79.3997 85.09 80.5277 85.09C81.5477 85.09 82.4297 85.282 83.1737 85.666C83.6657 85.918 83.9117 86.248 83.9117 86.656C83.9117 86.944 83.8157 87.184 83.6237 87.376C83.4437 87.556 83.2097 87.646 82.9217 87.646C82.7417 87.646 82.5017 87.574 82.2017 87.43C81.6617 87.178 81.0737 87.052 80.4377 87.052C79.7057 87.052 79.3397 87.28 79.3397 87.736C79.3397 87.952 79.4237 88.114 79.5917 88.222C79.7597 88.33 80.0777 88.408 80.5457 88.456L81.4997 88.564C83.4317 88.78 84.3977 89.662 84.3977 91.21C84.3977 92.11 84.0497 92.836 83.3537 93.388C82.6697 93.928 81.7217 94.198 80.5097 94.198ZM89.3096 94.108H89.2016C88.1936 94.108 87.4736 93.874 87.0416 93.406C86.6216 92.938 86.4116 92.2 86.4116 91.192V87.268C86.4116 87.196 86.3696 87.16 86.2856 87.16H86.2136C85.8896 87.16 85.6376 87.076 85.4576 86.908C85.2896 86.74 85.2056 86.512 85.2056 86.224C85.2056 85.936 85.2896 85.708 85.4576 85.54C85.6376 85.372 85.8896 85.288 86.2136 85.288H86.2856C86.3696 85.288 86.4116 85.252 86.4116 85.18V83.884C86.4116 83.476 86.5256 83.152 86.7536 82.912C86.9936 82.672 87.2996 82.552 87.6716 82.552C88.0436 82.552 88.3436 82.672 88.5716 82.912C88.7996 83.152 88.9136 83.476 88.9136 83.884V85.18C88.9136 85.252 88.9496 85.288 89.0216 85.288H89.7056C90.0296 85.288 90.2756 85.372 90.4436 85.54C90.6236 85.708 90.7136 85.936 90.7136 86.224C90.7136 86.512 90.6236 86.74 90.4436 86.908C90.2756 87.076 90.0296 87.16 89.7056 87.16H89.0216C88.9496 87.16 88.9136 87.196 88.9136 87.268V91.12C88.9136 91.6 89.1356 91.864 89.5796 91.912C89.9516 91.96 90.2276 92.086 90.4076 92.29C90.5996 92.494 90.6956 92.74 90.6956 93.028C90.6956 93.352 90.5756 93.616 90.3356 93.82C90.1076 94.012 89.7656 94.108 89.3096 94.108ZM36.2754 108.668V99.056C36.2754 98.636 36.3954 98.3 36.6354 98.048C36.8874 97.784 37.2114 97.652 37.6074 97.652C37.9914 97.652 38.3034 97.784 38.5434 98.048C38.7954 98.3 38.9214 98.636 38.9214 99.056V107.534C38.9214 107.606 38.9574 107.642 39.0294 107.642H43.3854C43.7814 107.642 44.0994 107.75 44.3394 107.966C44.5914 108.182 44.7174 108.464 44.7174 108.812C44.7174 109.16 44.5974 109.448 44.3574 109.676C44.1174 109.892 43.7934 110 43.3854 110H37.6074C37.1994 110 36.8754 109.88 36.6354 109.64C36.3954 109.388 36.2754 109.064 36.2754 108.668ZM52.1659 109.55C51.5179 109.982 50.7199 110.198 49.7719 110.198C48.8239 110.198 48.0199 109.982 47.3599 109.55C46.7119 109.118 46.2559 108.5 45.9919 107.696C45.7999 107.084 45.7039 106.4 45.7039 105.644C45.7039 104.888 45.7999 104.204 45.9919 103.592C46.2559 102.788 46.7119 102.17 47.3599 101.738C48.0199 101.306 48.8239 101.09 49.7719 101.09C50.7199 101.09 51.5179 101.306 52.1659 101.738C52.8259 102.17 53.2879 102.788 53.5519 103.592C53.7439 104.204 53.8399 104.888 53.8399 105.644C53.8399 106.4 53.7439 107.084 53.5519 107.696C53.2879 108.5 52.8259 109.118 52.1659 109.55ZM48.4219 107.102C48.6259 107.75 49.0759 108.074 49.7719 108.074C50.4679 108.074 50.9179 107.75 51.1219 107.102C51.2299 106.778 51.2839 106.292 51.2839 105.644C51.2839 104.996 51.2299 104.51 51.1219 104.186C50.9179 103.538 50.4679 103.214 49.7719 103.214C49.0759 103.214 48.6259 103.538 48.4219 104.186C48.3139 104.51 48.2599 104.996 48.2599 105.644C48.2599 106.292 48.3139 106.778 48.4219 107.102ZM63.0788 109.748C62.8508 109.988 62.5508 110.108 62.1788 110.108C61.8068 110.108 61.5008 109.988 61.2608 109.748C61.0328 109.508 60.9188 109.184 60.9188 108.776V104.816C60.9188 104.324 60.7988 103.94 60.5588 103.664C60.3308 103.376 59.9948 103.232 59.5508 103.232C59.1068 103.232 58.7708 103.376 58.5428 103.664C58.3148 103.94 58.2008 104.324 58.2008 104.816V108.776C58.2008 109.184 58.0808 109.508 57.8408 109.748C57.6128 109.988 57.3128 110.108 56.9408 110.108C56.5688 110.108 56.2628 109.988 56.0228 109.748C55.7948 109.508 55.6808 109.184 55.6808 108.776V102.512C55.6808 102.104 55.7948 101.78 56.0228 101.54C56.2628 101.3 56.5688 101.18 56.9408 101.18C57.5888 101.18 57.9908 101.486 58.1468 102.098H58.1648C58.6808 101.426 59.4488 101.09 60.4688 101.09C61.4048 101.09 62.1308 101.39 62.6468 101.99C63.1748 102.578 63.4388 103.358 63.4388 104.33V108.776C63.4388 109.184 63.3188 109.508 63.0788 109.748ZM68.816 113.438C68.24 113.438 67.676 113.336 67.124 113.132C66.584 112.94 66.2 112.718 65.972 112.466C65.744 112.226 65.63 111.95 65.63 111.638C65.63 111.35 65.732 111.098 65.936 110.882C66.14 110.678 66.392 110.576 66.692 110.576C66.956 110.576 67.286 110.684 67.682 110.9C68.126 111.14 68.546 111.26 68.942 111.26C70.07 111.26 70.634 110.636 70.634 109.388V108.686H70.616C70.124 109.334 69.386 109.658 68.402 109.658C67.682 109.658 67.07 109.472 66.566 109.1C66.062 108.728 65.696 108.194 65.468 107.498C65.276 106.91 65.18 106.202 65.18 105.374C65.18 104.546 65.276 103.838 65.468 103.25C65.696 102.554 66.062 102.02 66.566 101.648C67.07 101.276 67.682 101.09 68.402 101.09C69.434 101.09 70.19 101.426 70.67 102.098H70.688C70.856 101.486 71.258 101.18 71.894 101.18C72.266 101.18 72.566 101.3 72.794 101.54C73.034 101.78 73.154 102.104 73.154 102.512V109.046C73.154 111.974 71.708 113.438 68.816 113.438ZM69.194 107.552C69.83 107.552 70.256 107.234 70.472 106.598C70.58 106.274 70.634 105.872 70.634 105.392C70.634 104.9 70.58 104.492 70.472 104.168C70.256 103.532 69.83 103.214 69.194 103.214C68.546 103.214 68.114 103.532 67.898 104.168C67.79 104.492 67.736 104.9 67.736 105.392C67.736 105.872 67.79 106.274 67.898 106.598C68.114 107.234 68.546 107.552 69.194 107.552ZM81.451 109.55C80.803 109.982 80.005 110.198 79.057 110.198C78.109 110.198 77.305 109.982 76.645 109.55C75.997 109.118 75.541 108.5 75.277 107.696C75.085 107.084 74.989 106.4 74.989 105.644C74.989 104.888 75.085 104.204 75.277 103.592C75.541 102.788 75.997 102.17 76.645 101.738C77.305 101.306 78.109 101.09 79.057 101.09C80.005 101.09 80.803 101.306 81.451 101.738C82.111 102.17 82.573 102.788 82.837 103.592C83.029 104.204 83.125 104.888 83.125 105.644C83.125 106.4 83.029 107.084 82.837 107.696C82.573 108.5 82.111 109.118 81.451 109.55ZM77.707 107.102C77.911 107.75 78.361 108.074 79.057 108.074C79.753 108.074 80.203 107.75 80.407 107.102C80.515 106.778 80.569 106.292 80.569 105.644C80.569 104.996 80.515 104.51 80.407 104.186C80.203 103.538 79.753 103.214 79.057 103.214C78.361 103.214 77.911 103.538 77.707 104.186C77.599 104.51 77.545 104.996 77.545 105.644C77.545 106.292 77.599 106.778 77.707 107.102Z" fill="white"/>
<path d="M72.7727 43.625H71.5455C70.8674 43.625 70.3182 44.1704 70.3182 44.8438V48.5C70.3182 54.1977 65.3715 58.7695 59.5189 58.2028C54.4181 57.7084 50.6818 53.1549 50.6818 48.0658V44.8438C50.6818 44.1704 50.1326 43.625 49.4545 43.625H48.2273C47.5492 43.625 47 44.1704 47 44.8438V47.9028C47 54.7309 51.9068 60.8178 58.6591 61.7425V64.3438H54.3636C53.6856 64.3438 53.1364 64.8891 53.1364 65.5625V66.7812C53.1364 67.4546 53.6856 68 54.3636 68H66.6364C67.3144 68 67.8636 67.4546 67.8636 66.7812V65.5625C67.8636 64.8891 67.3144 64.3438 66.6364 64.3438H62.3409V61.7714C68.9153 60.8756 74 55.2717 74 48.5V44.8438C74 44.1704 73.4508 43.625 72.7727 43.625ZM60.5 55.8125C64.5669 55.8125 67.8636 52.5386 67.8636 48.5H61.3184C60.8666 48.5 60.5 48.2273 60.5 47.8906V46.6719C60.5 46.3352 60.8666 46.0625 61.3184 46.0625H67.8636V43.625H61.3184C60.8666 43.625 60.5 43.3523 60.5 43.0156V41.7969C60.5 41.4602 60.8666 41.1875 61.3184 41.1875H67.8636V38.75H61.3184C60.8666 38.75 60.5 38.4773 60.5 38.1406V36.9219C60.5 36.5852 60.8666 36.3125 61.3184 36.3125H67.8636C67.8636 32.2739 64.5669 29 60.5 29C56.4331 29 53.1364 32.2739 53.1364 36.3125V48.5C53.1364 52.5386 56.4331 55.8125 60.5 55.8125Z" fill="white"/>
<defs>
<linearGradient id="paint0_linear" x1="60" y1="0" x2="60" y2="130" gradientUnits="userSpaceOnUse">
<stop stop-color="#00C4FF"/>
<stop offset="0.520833" stop-color="#009DCC"/>
<stop offset="1" stop-color="#00C4FF"/>
</linearGradient>
</defs>
</svg>
